<?xml version="1.0" encoding="UTF-8" standalone="no"?>
<svg
   version="1.1"
   id="Layer_1"
   x="0px"
   y="0px"
   width="1024"
   viewBox="0 0 1024 1024"
   enable-background="new 0 0 1024 1024"
   xml:space="preserve"
   sodipodi:docname="notification_icon.svg"
   inkscape:version="1.4.2 (ebf0e940d0, 2025-05-08)"
   height="1024"
   xmlns:inkscape="http://www.inkscape.org/namespaces/inkscape"
   xmlns:sodipodi="http://sodipodi.sourceforge.net/DTD/sodipodi-0.dtd"
   xmlns="http://www.w3.org/2000/svg"
   xmlns:svg="http://www.w3.org/2000/svg"><defs
   id="defs903" /><sodipodi:namedview
   id="namedview903"
   pagecolor="#ffffff"
   bordercolor="#000000"
   borderopacity="0.25"
   inkscape:showpageshadow="2"
   inkscape:pageopacity="0.0"
   inkscape:pagecheckerboard="true"
   inkscape:deskcolor="#d1d1d1"
   inkscape:zoom="0.35355339"
   inkscape:cx="-172.53405"
   inkscape:cy="384.66609"
   inkscape:window-width="1533"
   inkscape:window-height="1080"
   inkscape:window-x="0"
   inkscape:window-y="0"
   inkscape:window-maximized="0"
   inkscape:current-layer="Layer_1"
   showgrid="false"><inkscape:grid
     id="grid1"
     units="px"
     originx="0"
     originy="0"
     spacingx="1"
     spacingy="1"
     empcolor="#0099e5"
     empopacity="0.30196078"
     color="#0099e5"
     opacity="0.14901961"
     empspacing="5"
     enabled="true"
     visible="false" /></sodipodi:namedview>























































































































































<path
   fill="#037351"
   opacity="1"
   stroke="none"
   d="m 922.01801,179.65076 c -0.67035,-1.07102 -1.34693,-2.49794 -2.01954,-4.2967 0.67371,1.06571 1.34351,2.50324 2.01954,4.2967 z"
   id="path152"
   style="fill:#ffffff;fill-opacity:0.99011511;stroke:#ffffff;stroke-opacity:1" />









<path
   fill="#037351"
   opacity="1"
   stroke="none"
   d="m 907.00317,155.7092 c -0.30908,-0.17511 -0.63995,-0.65108 -0.98999,-1.43027 0.31,0.17433 0.6391,0.65187 0.98999,1.43027 z"
   id="path162"
   style="fill:#ffffff;fill-opacity:0.99011511;stroke:#ffffff;stroke-opacity:1" />
<path
   fill="#037351"
   opacity="1"
   stroke="none"
   d="m 901.99884,149.71063 c -0.30566,-0.1813 -0.63666,-0.66351 -0.98444,-1.45274 0.30848,0.17924 0.63379,0.66553 0.98444,1.45274 z"
   id="path163"
   style="fill:#ffffff;fill-opacity:0.99011511;stroke:#ffffff;stroke-opacity:1" />
<path
   fill="#037351"
   opacity="1"
   stroke="none"
   d="m 919.00195,173.70261 c -0.30847,-0.1713 -0.63897,-0.64595 -1.00177,-1.42237 0.30506,0.17185 0.64246,0.64542 1.00177,1.42237 z"
   id="path164"
   style="fill:#ffffff;fill-opacity:0.99011511;stroke:#ffffff;stroke-opacity:1" />
<path
   fill="#037351"
   opacity="1"
   stroke="none"
   d="m 909.8678,158.78387 c -0.20703,0.0233 -0.53205,-0.16458 -0.86365,-0.57992 0.2962,-0.0943 0.54694,0.10443 0.86365,0.57992 z"
   id="path165"
   style="fill:#ffffff;fill-opacity:0.99011511;stroke:#ffffff;stroke-opacity:1" />
<path
   fill="#037351"
   opacity="1"
   stroke="none"
   d="m 922.90979,180.78546 c -0.15692,0.0333 -0.42725,-0.15944 -0.8064,-0.58078 0.15839,-0.0342 0.42566,0.16028 0.8064,0.58078 z"
   id="path166"
   style="fill:#ffffff;fill-opacity:0.99011511;stroke:#ffffff;stroke-opacity:1" />
<path
   fill="#037351"
   opacity="1"
   stroke="none"
   d="m 898.89746,145.79166 c -0.1477,0.025 -0.41882,-0.16674 -0.79956,-0.58646 0.20868,-0.10284 0.47064,0.0964 0.79956,0.58646 z"
   id="path167"
   style="fill:#ffffff;fill-opacity:0.99011511;stroke:#ffffff;stroke-opacity:1" />
<path
   fill="#037351"
   opacity="1"
   stroke="none"
   d="m 897.89966,144.79382 c -0.14746,0.0244 -0.41834,-0.16899 -0.80091,-0.58972 0.15131,-0.0276 0.41437,0.17221 0.80091,0.58972 z"
   id="path168"
   style="fill:#ffffff;fill-opacity:0.99011511;stroke:#ffffff;stroke-opacity:1" />
<path
   fill="#037351"
   opacity="1"
   stroke="none"
   d="m 919.90204,174.77963 c -0.15308,0.0315 -0.42127,-0.15936 -0.79743,-0.57681 0.15546,-0.0329 0.41889,0.16081 0.79743,0.57681 z"
   id="path169"
   style="fill:#ffffff;fill-opacity:0.99011511;stroke:#ffffff;stroke-opacity:1" />
<path
   fill="#037351"
   opacity="1"
   stroke="none"
   d="m 895.90344,142.79262 c -0.15094,0.0266 -0.42273,-0.16698 -0.80517,-0.58939 0.15442,-0.0295 0.41937,0.16982 0.80517,0.58939 z"
   id="path170"
   style="fill:#ffffff;fill-opacity:0.99011511;stroke:#ffffff;stroke-opacity:1" />
<path
   fill="#037351"
   opacity="1"
   stroke="none"
   d="m 894.90564,141.79129 c -0.15259,0.028 -0.42511,-0.16524 -0.80756,-0.58795 0.15595,-0.0308 0.42176,0.16801 0.80756,0.58795 z"
   id="path171"
   style="fill:#ffffff;fill-opacity:0.99011511;stroke:#ffffff;stroke-opacity:1" />


<path
   fill="#037351"
   opacity="1"
   stroke="none"
   d="m 891.90185,138.79309 c -0.14935,0.0257 -0.42156,-0.16637 -0.80346,-0.58713 0.20697,-0.0997 0.4704,0.0996 0.80346,0.58713 z"
   id="path174"
   style="fill:#ffffff;fill-opacity:0.99011511;stroke:#ffffff;stroke-opacity:1" />
<path
   fill="#037351"
   opacity="1"
   stroke="none"
   d="m 907.90381,156.78476 c -0.1507,0.0289 -0.41882,-0.16512 -0.79907,-0.58481 0.15246,-0.0298 0.41705,0.16608 0.79907,0.58481 z"
   id="path175"
   style="fill:#ffffff;fill-opacity:0.99011511;stroke:#ffffff;stroke-opacity:1" />
<path
   fill="#037351"
   opacity="1"
   stroke="none"
   d="m 905.90161,153.79227 c -0.15204,0.0277 -0.42517,-0.16455 -0.80603,-0.58753 0.15643,-0.0313 0.42066,0.16814 0.80603,0.58753 z"
   id="path176"
   style="fill:#ffffff;fill-opacity:0.99011511;stroke:#ffffff;stroke-opacity:1" />
<path
   fill="#037351"
   opacity="1"
   stroke="none"
   d="m 904.90869,152.7886 c -0.15533,0.0309 -0.42779,-0.16209 -0.80994,-0.5848 0.15778,-0.0329 0.42524,0.16404 0.80994,0.5848 z"
   id="path177"
   style="fill:#ffffff;fill-opacity:0.99011511;stroke:#ffffff;stroke-opacity:1" />
<path
   fill="#037351"
   opacity="1"
   stroke="none"
   d="m 903.91443,151.7827 c -0.15869,0.0338 -0.42902,-0.1604 -0.81201,-0.58173 0.15832,-0.0335 0.42932,0.16013 0.81201,0.58173 z"
   id="path178"
   style="fill:#ffffff;fill-opacity:0.99011511;stroke:#ffffff;stroke-opacity:1" />
<path
   fill="#037351"
   opacity="1"
   stroke="none"
   d="m 902.91858,150.77942 c -0.16193,0.0361 -0.4314,-0.15845 -0.81409,-0.57895 0.16004,-0.0345 0.43329,0.15692 0.81409,0.57895 z"
   id="path179"
   style="fill:#ffffff;fill-opacity:0.99011511;stroke:#ffffff;stroke-opacity:1" />
<path
   fill="#037351"
   opacity="1"
   stroke="none"
   d="m 892.90637,139.79098 c -0.15277,0.0283 -0.42566,-0.16403 -0.80804,-0.58599 0.15631,-0.0313 0.42212,0.16705 0.80804,0.58599 z"
   id="path180"
   style="fill:#ffffff;fill-opacity:0.99011511;stroke:#ffffff;stroke-opacity:1" />
<path
   fill="#037351"
   opacity="1"
   stroke="none"
   d="m 908.90344,157.78839 c -0.15179,0.0283 -0.42236,-0.16289 -0.80212,-0.58179 0.20984,-0.10466 0.47406,0.0921 0.80212,0.58179 z"
   id="path181"
   style="fill:#ffffff;fill-opacity:0.99011511;stroke:#ffffff;stroke-opacity:1" />

<path
   fill="#037351"
   opacity="1"
   stroke="none"
   d="m 899.93018,146.79629 c -0.14502,0.0241 -0.42786,-0.16423 -0.82471,-0.58483 0.15289,-0.0307 0.41992,0.17083 0.82471,0.58483 z"
   id="path183"
   style="fill:#ffffff;fill-opacity:0.99011511;stroke:#ffffff;stroke-opacity:1" />
<path
   fill="#037351"
   opacity="1"
   stroke="none"
   d="m 893.90662,140.79048 c -0.15338,0.0286 -0.42646,-0.16417 -0.8089,-0.5869 0.1568,-0.0315 0.42303,0.16698 0.8089,0.5869 z"
   id="path184"
   style="fill:#ffffff;fill-opacity:0.99011511;stroke:#ffffff;stroke-opacity:1" />















































































































































































































































































































































































































































































































































































































































































































































<path
   style="fill:#ffffff;fill-opacity:0.99011511;stroke:#ffffff;stroke-width:6.428;stroke-dasharray:none;stroke-opacity:1"
   d="m 459.88804,800.75823 c -18.6084,-0.70049 -48.91869,-3.16191 -63.18575,-5.13115 -18.48244,-2.55108 -56.92695,-10.32884 -70.54645,-14.27236 -23.45869,-6.79246 -41.12534,-18.59359 -49.59014,-33.12571 -3.09721,-5.31718 -3.42488,-7.19584 -3.52211,-20.19339 -0.0912,-12.18747 0.3033,-15.11017 2.63747,-19.54198 2.91493,-5.53446 7.02632,-25.56021 7.02632,-34.22383 0,-5.11899 -0.12706,-5.25516 -9.44529,-10.12314 -20.4299,-10.67284 -42.43156,-28.27799 -53.56346,-42.86009 -17.63995,-23.10724 -26.07815,-55.74066 -23.01427,-89.0041 1.41116,-15.32046 2.41424,-21.88998 11.04264,-72.32201 4.99055,-29.1692 6.05468,-51.38115 3.20171,-66.83061 -2.23869,-12.12302 -12.69824,-32.30438 -22.09761,-42.63663 -9.12979,-10.03591 -15.29718,-13.60186 -31.79863,-18.3858 -6.33688,-1.83712 -12.60354,-4.31936 -13.92589,-5.51608 -3.25533,-2.94602 -3.12439,-11.18703 0.28981,-18.23982 8.38606,-17.32328 32.18177,-23.03368 59.34666,-14.24177 13.70249,4.43481 19.779,8.58389 33.66013,22.98336 9.525,9.88067 12.33076,13.8265 17.12159,24.0786 16.25157,34.77741 19.89654,71.62269 12.29791,124.31377 -8.26765,57.33022 -9.43917,68.12131 -8.86627,81.66878 0.51671,12.21847 0.96502,14.08038 5.83327,24.22608 4.03434,8.40778 7.52989,13.27051 14.87553,20.69365 10.86197,10.97659 21.00574,18.43671 24.22578,17.81659 1.66319,-0.3203 2.55143,-3.01312 3.78928,-11.48782 2.31458,-15.84612 10.74092,-41.29116 19.28227,-58.22676 7.58593,-15.04118 7.96476,-16.46984 11.85008,-44.69 2.45945,-17.86365 7.51821,-33.36566 17.18961,-52.67574 4.8035,-9.59075 7.11065,-15.76119 7.06327,-18.89058 -0.27682,-18.27937 7.04951,-56.1061 13.64266,-70.43877 1.81289,-3.94097 4.74411,-13.5464 6.51384,-21.3454 3.80091,-16.75017 5.00216,-19.29198 12.44449,-26.33198 12.51533,-11.83872 20.22033,-14.48226 47.16977,-16.1836 21.89816,-1.38245 25.56578,-1.95188 25.56578,-3.96935 0,-0.66659 -2.00545,-4.00343 -4.45655,-7.41519 -8.88335,-12.36495 -11.20732,-38.66511 -4.04831,-45.81429 l 3.36211,-3.3575 45.23804,0.0751 c 30.8458,0.0512 46.35012,0.54847 48.73355,1.5631 2.6475,1.12705 4.04652,3.23607 5.76678,8.69336 1.96036,6.21898 2.06026,8.35057 0.72971,15.57169 -1.82959,9.92954 -8.10705,23.9443 -12.62709,28.19066 -1.77513,1.66764 -3.22751,3.4423 -3.22751,3.94368 0,0.50139 10.11298,1.22558 22.47329,1.60933 24.80284,0.77006 38.302,3.35179 47.30747,9.04763 7.44181,4.70684 15.59425,14.08707 18.87862,21.72177 3.08756,7.17723 6.23912,8.58517 9.33225,4.16912 0.95273,-1.36022 5.52948,-4.66796 10.17056,-7.35052 4.64108,-2.68257 9.37264,-5.68141 10.51458,-6.6641 2.80442,-2.41329 26.81522,-10.40945 38.51282,-12.82565 21.16029,-4.37078 51.82314,-1.35534 67.13482,6.60215 4.79115,2.48996 9.1881,4.37911 9.771,4.19811 1.22674,-0.38092 16.46761,9.81916 20.10166,13.45321 1.34989,1.34988 3.03323,2.45433 3.74079,2.45433 0.70756,0 2.75582,2.19847 4.55168,4.8855 1.79589,2.68702 6.45907,9.28244 10.36265,14.65648 3.90358,5.37405 8.69152,13.58168 10.63987,18.23919 1.94836,4.65751 4.2761,9.34758 5.17276,10.42239 0.89665,1.07481 3.79573,7.23054 6.44239,13.67939 11.86041,28.89909 25.35736,58.87462 41.17405,91.44389 21.50348,44.27934 27.21248,71.58581 20.52889,98.19102 -3.42682,13.64105 -5.04327,16.82707 -13.38741,26.38657 -7.77805,8.91096 -12.89612,11.86605 -24.05652,13.88982 -6.81153,1.23517 -9.36108,1.12765 -15.56274,-0.65626 -12.83423,-3.69177 -18.4905,-11.39049 -18.4905,-25.16732 0,-6.47048 0.71891,-8.89466 4.4998,-15.17346 8.79125,-14.59931 8.98627,-24.9526 0.82223,-43.65217 -12.99432,-29.76324 -19.12181,-43.19118 -22.53191,-49.37701 -4.05121,-7.34879 -16.68986,-36.18313 -26.61015,-60.70951 -13.88335,-34.32436 -22.78064,-48.02737 -36.34558,-55.97696 -7.03401,-4.1222 -18.7296,-7.20879 -27.31531,-7.20879 -14.28064,0 -32.07035,7.39789 -39.51859,16.4339 l -3.75231,4.55221 -0.67284,29.30376 c -0.61263,26.68098 -0.89168,29.46944 -3.11773,31.15507 -1.34469,1.01824 -3.61741,1.87896 -5.05048,1.91271 -5.53736,0.13045 -6.14228,1.76248 -3.18626,8.59605 7.89709,18.256 16.86564,53.08465 16.86564,65.49631 0,4.89454 1.69908,9.36833 8.97508,23.63216 13.1261,25.7323 19.22469,46.34756 20.55791,69.49261 0.59595,10.34591 1.35052,13.3301 5.65422,22.36161 6.38429,13.3977 14.96372,42.57465 17.47301,59.42237 1.07829,7.23972 3.23761,15.80123 4.7985,19.02558 7.13782,14.74479 3.61834,36.31815 -7.99862,49.02895 -7.98234,8.73395 -17.52052,13.8212 -39.3449,20.98486 -47.87066,15.7131 -107.45456,23.02355 -184.03886,22.58002 -22.92926,-0.13279 -46.08651,-0.40695 -51.46056,-0.60925 z m 113.99491,-16.07619 c 27.70032,-2.563 67.90304,-7.89393 82.97092,-11.00206 29.33979,-6.05207 52.28382,-15.55766 61.96483,-25.67168 11.47039,-11.98343 11.96117,-12.85377 9.42599,-16.71568 -0.87598,-1.33439 -1.59277,-1.50387 -2.25996,-0.53436 -0.5374,0.78092 -6.83969,4.19374 -14.00509,7.58405 -21.79946,10.31442 -59.16371,18.00824 -114.64631,23.60728 -75.25932,7.5948 -185.02983,3.50688 -248.01659,-9.2363 -23.40152,-4.73447 -48.76544,-14.05154 -55.87852,-20.52618 -2.19357,-1.99668 -3.32587,-2.30658 -4.42218,-1.21027 -2.23444,2.23444 1.03741,8.98579 7.95264,16.41004 17.57214,18.86558 70.7709,32.15146 151.19417,37.75929 15.32279,1.06844 113.05588,0.70763 125.7201,-0.46413 z m -26.70738,-31.21962 c 63.21122,-2.17243 122.74915,-10.56074 150.42563,-21.19347 11.61497,-4.46224 21.72319,-11.11031 23.70596,-15.59115 1.5733,-3.5555 0.0203,-24.96503 -2.71995,-37.49714 -2.49737,-11.42132 -12.21218,-38.47672 -15.09359,-42.03511 -2.1746,-2.68552 -2.68569,-2.7629 -7.99236,-1.21015 -31.66745,9.266 -63.38127,15.11046 -105.33332,19.41161 -18.60961,1.90795 -33.57163,2.31002 -81.42494,2.18809 -53.93683,-0.13742 -61.23102,-0.42788 -91.19593,-3.63132 -38.55098,-4.12135 -60.97251,-7.66146 -75.87309,-11.97947 -11.13679,-3.22732 -15.97423,-2.83227 -15.97423,1.30451 0,0.9557 -2.25166,6.06484 -5.00366,11.35364 -4.67914,8.99234 -5.41664,9.75549 -11.37095,11.76654 -3.50202,1.1828 -7.06249,3.23471 -7.91216,4.5598 -1.54959,2.41661 -6.98041,34.94257 -6.98041,41.80665 0,4.77764 9.38583,13.74192 18.99349,18.14046 24.50336,11.21801 73.18969,19.07303 142.55358,22.9995 16.51219,0.93469 57.73259,0.75707 91.19593,-0.39299 z M 312.35062,652.74619 c 3.94864,-7.56246 5.28001,-16.67861 2.73953,-18.75821 -0.97184,-0.79554 -8.21585,-3.95445 -16.09778,-7.01979 -7.88194,-3.06534 -14.62392,-5.94758 -14.98219,-6.40496 -0.35827,-0.45738 -4.05262,-3.06852 -8.20967,-5.80253 -14.74383,-9.69673 -27.15598,-27.49234 -33.04109,-47.37186 -3.62948,-12.26015 -2.77191,-28.86509 4.01624,-77.76543 8.77114,-63.18541 9.209,-89.17986 1.94379,-115.39724 -2.77761,-10.02336 -11.36202,-29.86485 -12.92101,-29.86485 -0.52161,0 -2.4191,-2.19847 -4.21665,-4.88549 -3.25077,-4.85934 -15.07132,-17.42377 -19.93454,-21.18905 -11.03019,-8.53995 -19.88171,-11.70663 -32.72249,-11.70663 -9.77281,0 -18.68049,3.1226 -18.68049,6.54847 0,1.79904 2.54485,3.19167 10.7481,5.88174 23.14254,7.58906 31.27932,14.12653 41.77389,33.56307 11.8223,21.89558 15.16713,35.05718 15.20094,59.81435 0.0247,18.11416 -1.41394,30.14784 -9.23387,77.23563 -5.92959,35.70506 -7.48477,57.66035 -5.19403,73.32678 2.57662,17.6216 9.47398,34.92449 17.72441,44.46386 12.21016,14.11772 16.33919,18.41791 22.6252,23.56305 3.93939,3.22443 8.55203,7.13428 10.25029,8.68856 3.43153,3.14059 20.26289,12.15784 31.48285,16.86665 10.28328,4.3157 12.79514,3.7472 16.72857,-3.78612 z m 292.97102,-11.81132 c 15.85819,-1.89724 34.03224,-4.34561 40.38677,-5.44082 13.5847,-2.34137 48.47194,-11.83918 50.90518,-13.85858 3.96602,-3.2915 0.57334,-31.12823 -5.9835,-49.09439 -3.60081,-9.86644 -12.65263,-26.97518 -16.8155,-31.78281 -2.62616,-3.03289 -7.0062,-2.9058 -31.3649,0.91004 -45.46196,7.12172 -58.30562,7.89166 -129.79829,7.78111 -71.98904,-0.11132 -88.26462,-0.99451 -131.22221,-7.12077 -37.80247,-5.39109 -34.32433,-5.96731 -41.66092,6.90206 -3.36868,5.90912 -7.92181,16.13539 -10.11809,22.72506 -6.37549,19.12896 -9.90671,47.96186 -6.23033,50.87161 4.89827,3.87683 38.44438,12.2672 61.14485,15.29321 40.32987,5.37604 73.62684,7.02593 133.94929,6.63731 53.1813,-0.34262 60.35845,-0.65871 86.80765,-3.82303 z M 874.98226,591.0173 c 9.48784,-10.27632 12.48732,-18.39193 13.22012,-35.76921 0.79633,-18.88389 -2.28817,-28.93957 -20.51383,-66.87663 -4.31267,-8.97691 -7.84122,-16.71838 -7.84122,-17.20327 0,-0.48487 -0.7753,-1.80715 -1.72286,-2.93838 -0.94758,-1.13123 -3.98024,-7.62625 -6.73923,-14.43337 -8.25118,-20.35779 -29.84567,-68.85041 -37.15584,-83.43724 -6.45409,-12.87861 -14.4557,-23.75614 -24.7224,-33.60808 -4.7668,-4.57422 -25.11381,-18.44578 -27.05655,-18.44578 -0.61954,0 -3.43612,-1.11591 -6.25905,-2.4798 -11.32508,-5.47169 -32.36827,-6.86417 -49.68329,-3.28765 -11.15923,2.305 -22.87815,6.39786 -27.74984,9.6917 -1.79135,1.21116 -8.17191,4.9808 -14.17904,8.37699 -6.00711,3.39618 -13.87899,9.01022 -17.49306,12.47564 l -6.57102,6.30076 5.11647,13.26762 c 2.81406,7.2972 5.80542,13.54145 6.64746,13.87613 0.84205,0.33467 3.80087,-1.63585 6.57517,-4.37896 12.74085,-12.59761 25.00813,-20.66724 40.28662,-26.50127 13.12674,-5.0124 44.85463,-4.81724 54.25134,0.3337 16.95154,9.29224 25.38079,17.03741 31.88427,29.29673 2.19324,4.13432 9.95813,21.00093 17.25531,37.48134 19.18431,43.32702 37.98876,84.37691 39.68696,86.63613 4.02496,5.35466 8.9692,16.81979 12.73464,29.53018 5.64998,19.07179 5.77656,31.90383 0.45705,46.3368 -2.04245,5.54158 -4.51787,10.74314 -5.50093,11.559 -2.58836,2.14816 -2.22738,3.81951 1.71337,7.93276 2.92213,3.05006 4.57802,3.65398 10.01865,3.65398 6.25407,0 6.7941,-0.29913 13.34073,-7.38982 z m -324.5299,-52.53096 c 20.79052,-0.67698 45.99968,-2.14117 56.02036,-3.25376 28.95264,-3.21459 59.11004,-8.03793 61.2236,-9.79203 1.0683,-0.88661 1.94236,-3.48882 1.94236,-5.78271 0,-7.07772 -4.06157,-28.27431 -7.19111,-37.52909 -3.43559,-10.15983 -18.34762,-38.27745 -20.79916,-39.21819 -0.91062,-0.34943 -5.78465,-0.11689 -10.8312,0.51678 -35.13365,4.41154 -61.26081,5.61344 -122.72561,5.64564 -55.56883,0.0291 -66.69617,-0.31239 -92.30618,-2.83292 -41.10032,-4.04506 -39.56975,-4.15143 -44.55646,3.09651 -10.71754,15.57741 -18.3547,37.43486 -20.98431,60.05674 -1.41013,12.13106 -1.35177,13.75256 0.56382,15.66816 2.18319,2.18319 32.50592,7.51316 61.46821,10.80458 33.13846,3.766 77.28175,4.60312 138.17568,2.62029 z m 16.2652,-101.58537 c 46.07591,-1.47488 67.52591,-3.48676 70.88039,-6.64813 2.35459,-2.21902 2.40378,-3.20692 0.94813,-19.03711 -0.84444,-9.18316 -2.39563,-20.36397 -3.44711,-24.84627 -2.27213,-9.6859 -8.68761,-26.62603 -12.33479,-32.57012 l -2.60242,-4.24138 -111.62913,0.33298 -111.62915,0.33298 -3.63863,6.51399 c -3.85732,6.90553 -9.3167,22.05446 -12.36218,34.30312 -2.27163,9.13638 -3.70719,36.69842 -2.03714,39.11246 1.31681,1.90344 9.81778,3.0322 44.54414,5.91459 25.13986,2.08668 92.00008,2.47527 143.30789,0.83289 z m 50.80232,-98.91493 c 10.13615,-2.82039 -0.7489,-20.14823 -17.84581,-28.40857 l -7.55193,-3.64872 -80.08642,-0.36451 c -78.47089,-0.35717 -80.27108,-0.30865 -89.24173,2.40538 -5.03542,1.52345 -10.0682,3.73939 -11.18394,4.92432 -1.11574,1.18492 -3.762,3.62005 -5.88055,5.4114 -4.96808,4.20077 -9.27305,10.30707 -10.38226,14.72656 -0.72295,2.88048 -0.33791,3.70971 2.19327,4.72346 3.54446,1.41956 214.91009,1.64121 219.97937,0.23068 z m -101.85237,-42.6716 c 2.51499,-0.67353 2.95252,-1.54588 2.63336,-5.25042 -0.40051,-4.64862 1.02203,-6.07443 9.5762,-9.59823 4.61976,-1.90306 13.46397,-13.57636 15.25517,-20.135 0.78277,-2.86616 1.42648,-7.62114 1.43046,-10.56662 l 0.007,-5.35543 -6.83969,-0.82155 c -11.17652,-1.34245 -59.11278,-0.9661 -62.95383,0.49426 -3.36827,1.28062 -3.48896,1.64304 -2.79292,8.38698 1.21525,11.77463 12.55457,27.2682 22.62089,30.90823 4.7848,1.73021 5.12704,2.48079 2.81747,6.179 -2.56428,4.10605 0.6808,6.60527 8.54933,6.58431 3.6741,-0.01 8.03744,-0.38127 9.69629,-0.82553 z"
   id="path904" /><path
   style="fill:#1a1a1a;fill-opacity:0;stroke:#000000;stroke-width:2.5"
   d=""
   id="path942" /><path
   style="fill:#ffffff;fill-opacity:0.99011511;stroke:#ffffff;stroke-width:20;stroke-opacity:1"
   d="m 433.77562,429.0698 c -14.97341,-0.89025 -31.84841,-2.2546 -37.5,-3.03189 L 386,424.62465 v -10.4924 c 0,-12.50414 6.10332,-37.5738 11.92628,-48.98775 l 4.17272,-8.1792 107.39962,0.51735 107.39964,0.51735 5.47156,14.2462 c 5.12636,13.34734 11.4699,49.58076 9.09594,51.95471 -4.23482,4.23482 -148.56649,7.78955 -197.69014,4.86889 z"
   id="path1" /><path
   style="fill:#ffffff;fill-opacity:0.99011511;stroke:#ffffff;stroke-width:20;stroke-opacity:1"
   d="m 410,528.10821 c -21.0389,-2.69769 -44.23349,-6.50753 -50.16153,-8.23932 -2.62071,-0.7656 -2.9114,-2.76686 -1.6993,-11.69886 2.16615,-15.96245 7.42731,-32.68425 14.44431,-45.9091 l 6.22866,-11.73906 14.09393,1.26376 c 65.60606,5.88269 124.13199,6.75857 189.09393,2.82993 21.45,-1.29721 43.05,-2.41639 48,-2.48706 l 9,-0.1285 8.54896,17 c 9.8179,19.52329 16.6934,47.37808 12.35618,50.05863 -2.66072,1.64441 -4.36628,1.94331 -40.90514,7.16849 -30.8062,4.40539 -178.917,5.73845 -209,1.88109 z"
   id="path2" /><path
   style="fill:#ffffff;fill-opacity:0.99011511;stroke:#ffffff;stroke-width:20;stroke-opacity:1"
   d="m 422,634.83526 c -26.2401,-2.25097 -63.22348,-8.47972 -79,-13.3052 -11.26982,-3.44704 -12.03927,-4.07678 -12.64531,-10.34947 -0.99021,-10.24899 5.0285,-34.00636 12.63764,-49.88398 8.09252,-16.88626 4.41046,-16.14054 48.72155,-9.86748 28.50918,4.03601 39.18572,4.42975 120.28612,4.43595 81.90238,0.006 91.30834,-0.34694 117.94534,-4.42913 41.67854,-6.38735 38.55648,-7.05708 46.91534,10.06405 C 684.99132,578.15364 690,596.03952 690,608.4202 c 0,4.71889 -0.36978,8.5798 -0.82174,8.5798 -0.45196,0 -9.30048,2.2567 -19.66336,5.0149 -41.07782,10.93329 -67.91086,13.43895 -150.5149,14.05501 -41.8,0.31174 -85.45,-0.24385 -97,-1.23465 z"
   id="path3" /><path
   style="fill:#ffffff;fill-opacity:0.99011511;stroke:#ffffff;stroke-width:20;stroke-opacity:1"
   d="M 421.10679,743.96392 C 360.95943,738.20956 321.43405,729.12127 308.70641,718.1191 l -7.21642,-6.2381 2.40358,-14.9405 c 3.33432,-20.72599 3.26959,-20.58022 10.98306,-24.73419 4.49242,-2.41933 8.81699,-7.37769 12.39493,-14.21146 5.31808,-10.15741 5.69237,-10.43778 11.61183,-8.69811 11.40677,3.35234 53.97906,9.63058 85.93784,12.67347 37.15264,3.53741 132.22185,4.08861 163.46687,0.94776 31.53246,-3.16974 58.42492,-7.42861 82.7119,-13.09882 12.1,-2.82496 23.31654,-5.28993 24.92564,-5.47771 4.5628,-0.53251 16.26912,35.98156 17.5563,54.76127 l 1.05644,15.41316 -8.8234,5.17086 c -15.96994,9.359 -57.98412,18.31077 -109.71498,23.37644 -36.49178,3.57342 -141.31435,4.11328 -174.89321,0.90075 z"
   id="path4" /><path
   style="fill:#ffffff;fill-opacity:0.99011511;stroke:#ffffff;stroke-width:11.02799931;stroke-dasharray:none;stroke-opacity:1"
   d="m 293,651.15302 c -23.18768,-10.45614 -36.86932,-21.06957 -57.1911,-44.36555 -9.53964,-10.93582 -16.53934,-28.75703 -18.87978,-48.06784 -1.56698,-12.92907 -0.17457,-31.70487 4.63235,-62.46433 7.26959,-46.5182 8.40056,-54.64577 9.49784,-68.2553 1.1288,-14.0005 0.70802,-28.7104 -1.14422,-40 -3.18625,-19.42053 -17.14992,-47.2322 -29.11595,-57.99068 -5.47067,-4.91861 -16.94259,-10.82242 -28.19338,-14.5092 -5.89505,-1.93176 -6.6197,-2.41304 -5,-3.32083 1.04183,-0.58391 5.53535,-1.2533 9.9856,-1.48754 9.1953,-0.48401 17.01382,1.32394 24.39596,5.64128 10.26478,6.00322 29.9346,27.52259 35.32106,38.64231 4.76107,9.82865 9.46672,25.32433 11.1306,36.653 3.03658,20.67481 1.85896,41.90426 -5.42908,97.87166 -7.74373,59.46688 -7.8297,70.2642 -0.69997,87.91564 10.27108,25.42861 27.64553,41.90721 56.52059,53.60627 l 14.33051,5.80618 -0.62919,3.58595 c -1.02409,5.83656 -5.75446,14.55566 -8.03184,14.80441 -1.1,0.12015 -6.275,-1.70929 -11.5,-4.06543 z"
   id="path8" /><path
   style="fill:#ffffff;fill-opacity:0.99011511;stroke:#ffffff;stroke-width:6.428;stroke-dasharray:none;stroke-opacity:1"
   d="M 423.25,334.81516 C 409.9125,334.62227 399,334.09959 399,333.65367 c 0,-0.44593 1.31835,-2.80043 2.92967,-5.23223 4.21809,-6.36592 13.1492,-13.67813 19.81307,-16.22164 5.73655,-2.18956 6.05154,-2.19847 87.55755,-2.47674 l 81.80029,-0.27926 7.16494,3.76507 c 11.24721,5.91024 22.37271,18.54258 18.4603,20.96058 -1.21084,0.74834 -151.66131,1.25046 -193.47582,0.64571 z"
   id="path9" /><path
   style="fill:#ffffff;fill-opacity:0.99011511;stroke:#ffffff;stroke-width:6.428;stroke-dasharray:none;stroke-opacity:1"
   d="m 501.74403,291.9107 c -0.32412,-0.32412 -0.34086,-2.12031 -0.0372,-3.99154 0.66973,-4.12707 -0.57451,-5.81913 -6.08894,-8.2804 -8.31156,-3.70974 -18.47558,-18.11954 -19.92989,-28.25514 l -0.51889,-3.61638 6.06214,-0.63362 c 7.89066,-0.82474 47.70549,-0.80395 54.63839,0.0285 l 5.36965,0.64477 -0.64798,5.51327 c -1.19674,10.18241 -8.47829,20.57957 -17.65802,25.21349 -6.31981,3.19023 -7.93329,5.18205 -7.93329,9.79359 0,1.7755 -0.63258,3.2015 -1.58179,3.56574 -2.02851,0.77841 -10.90001,0.79185 -11.67418,0.0177 z"
   id="path10" /><path
   style="fill:#ffffff;fill-opacity:0.99011511;stroke:#ffffff;stroke-width:6.428;stroke-dasharray:none;stroke-opacity:1"
   d="m 854.90538,592.62446 -2.31619,-1.87554 3.13494,-6.87446 c 5.51534,-12.09433 6.75936,-17.73996 6.693,-30.37446 -0.0905,-17.23101 -4.77923,-33.28659 -15.91575,-54.5 -6.73803,-12.83495 -13.97147,-28.47436 -37.69485,-81.5 -18.96717,-42.39471 -22.81057,-49.81025 -29.63866,-57.1854 -6.50756,-7.02894 -21.51582,-17.21599 -28.63057,-19.43337 -7.58925,-2.36527 -31.85642,-2.98625 -42.71172,-1.09298 -14.97134,2.61116 -32.32203,11.97034 -46.76764,25.22707 -3.97965,3.65212 -7.40286,6.47309 -7.60713,6.26882 -0.20428,-0.20427 -2.20768,-5.00384 -4.45201,-10.6657 l -4.08061,-10.29429 4.69299,-4.13093 c 6.69234,-5.89083 10.34725,-8.3915 23.88882,-16.34456 18.28553,-10.73923 29.40177,-14.18687 48.53153,-15.05176 13.77916,-0.62298 25.97082,1.13317 33.09369,4.76698 2.08731,1.06487 4.33274,1.93612 4.98986,1.93612 0.65711,0 5.73754,3.01019 11.28983,6.68932 16.79681,11.13009 28.59024,23.82911 37.43605,40.31068 5.3197,9.91169 18.86983,39.68236 31.84007,69.95508 5.76273,13.45029 11.97733,27.40029 13.81021,31 7.11951,13.98246 22.43771,47.97104 25.36533,56.28152 1.69275,4.80512 3.53496,12.3831 4.0938,16.83995 1.24003,9.88942 -0.0817,24.61584 -2.8673,31.94695 -2.05416,5.40612 -8.75702,14.78827 -12.88483,18.0352 -3.2551,2.56047 -10.16979,2.59467 -13.29286,0.0658 z"
   id="path11" /><path
   style="fill:#ffffff;fill-opacity:0.99011511;stroke:#ffffff;stroke-width:6.6837;stroke-dasharray:none;stroke-opacity:1"
   d="m 455.12314,781.34468 c -10.29851,-0.45976 -23.73465,-1.38382 -29.85809,-2.05348 -69.10916,-7.55783 -109.49353,-19.26205 -126.28215,-36.59915 -3.34339,-3.45263 -5.85509,-6.51374 -5.58154,-6.80243 0.27357,-0.28871 3.32934,0.95796 6.79063,2.77035 29.3402,15.3631 85.65147,25.12123 166.06467,28.77719 103.58327,4.70937 211.45843,-7.9277 252.37924,-29.56506 3.81461,-2.01703 7.12739,-3.46498 7.36172,-3.21767 0.23433,0.24731 -2.72719,3.58894 -6.58114,7.42584 -14.74848,14.6832 -41.50945,24.47113 -85.14483,31.14206 -44.21486,6.75951 -59.831,7.94179 -111.84131,8.46735 -26.72045,0.27 -57.00869,0.11474 -67.3072,-0.345 z"
   id="path12" /></svg>
